<?xml version="1.0" encoding="UTF-8"?><svg id="Capa_1" xmlns="http://www.w3.org/2000/svg" viewBox="0 0 496.33 166.67"><defs><style>.cls-1{fill:#050606;}</style></defs><g><path class="cls-1" d="M26.26,38.76c1.87,0,3.6,.22,5.18,.65,1.58,.44,2.95,1.03,4.09,1.77,1.15,.74,2.04,1.61,2.69,2.62,.65,1,.97,2.07,.97,3.2,0,1.68-.5,3.07-1.5,4.17-1,1.1-2.37,1.65-4.12,1.65s-3.15-.5-4.21-1.5c-1.07-1-1.6-2.39-1.6-4.17,0-.45,.02-1.03,.05-1.72,.03-.69,0-1.36-.1-2.01-.1-.65-.31-1.2-.63-1.67-.32-.47-.84-.7-1.55-.7-1.13,0-2.05,.42-2.76,1.26-.71,.84-1.26,2.01-1.65,3.51-.39,1.5-.65,3.29-.8,5.38-.14,2.08-.22,4.35-.22,6.8v9.2c0,.26,.13,.39,.39,.39h8.96c.78,0,1.25,.05,1.43,.14,.18,.1,.27,.31,.27,.63,0,.42-.22,.86-.65,1.33-.44,.47-.93,.7-1.48,.7h-8.57c-.23,0-.34,.11-.34,.34v32.59c0,1.32,.28,2.39,.85,3.2,.56,.81,1.21,1.45,1.94,1.91,.73,.47,1.44,.8,2.13,.99,.69,.19,1.17,.31,1.43,.34,.26,.06,.44,.17,.56,.31s.15,.3,.12,.46c-.03,.16-.12,.31-.27,.44-.15,.13-.35,.19-.61,.19H.88c-.26,0-.46-.06-.61-.19-.15-.13-.23-.27-.27-.44-.03-.16,0-.31,.12-.46s.3-.25,.56-.31c.26-.03,.73-.15,1.43-.34,.69-.19,1.4-.52,2.13-.99s1.37-1.11,1.94-1.91c.56-.81,.85-1.87,.85-3.2v-32.54c0-.26-.11-.39-.34-.39h-1.45c-.77,0-1.25-.05-1.43-.15-.18-.1-.27-.31-.27-.63,0-.42,.19-.86,.56-1.33,.37-.47,.83-.7,1.38-.7h1.21c.23,0,.34-.13,.34-.39,0-3.33,.05-6.15,.17-8.48,.11-2.32,.32-4.33,.61-6s.68-3.12,1.16-4.31c.48-1.19,1.1-2.32,1.84-3.39,.87-1.19,1.9-2.2,3.07-3,1.18-.81,2.45-1.45,3.8-1.94,1.36-.48,2.76-.82,4.21-1.02,1.45-.19,2.91-.29,4.36-.29Z"/><path class="cls-1" d="M76.63,106.71c.45-.1,.81,0,1.07,.27,.26,.27,.27,.64,.05,1.09-.19,.36-.51,.77-.95,1.26s-1.02,.94-1.74,1.36c-.73,.42-1.61,.77-2.66,1.07-1.05,.29-2.29,.44-3.71,.44-1.97,0-3.62-.4-4.96-1.19s-2.27-1.7-2.79-2.74c-.13-.26-.31-.37-.56-.34-.24,.03-.44,.13-.61,.29-.1,.1-.4,.36-.9,.8-.5,.44-1.21,.9-2.13,1.4-.92,.5-2.03,.95-3.32,1.36-1.29,.4-2.78,.61-4.46,.61-2.88,0-5.29-.4-7.24-1.21-1.96-.81-3.54-1.85-4.75-3.12-1.21-1.28-2.08-2.71-2.62-4.31-.53-1.6-.8-3.19-.8-4.77,0-2.55,.72-4.78,2.16-6.68,1.44-1.91,3.3-3.33,5.59-4.26,1.23-.48,2.51-.83,3.85-1.04,1.34-.21,2.67-.43,4-.65,1.32-.23,2.62-.51,3.9-.85s2.48-.9,3.61-1.67c1.2-.81,2.03-1.84,2.49-3.1,.47-1.26,.7-2.6,.7-4.02,0-1.03-.14-2.03-.41-2.98-.27-.95-.66-1.78-1.16-2.49-.5-.71-1.08-1.28-1.74-1.7-.66-.42-1.38-.63-2.15-.63-1.39,0-2.41,.36-3.05,1.07-.65,.71-1.16,1.57-1.53,2.57-.37,1-.72,2.04-1.04,3.12-.32,1.08-.84,2.01-1.55,2.78-.58,.61-1.33,1.07-2.25,1.38s-1.8,.46-2.64,.46-1.65-.15-2.32-.44c-.68-.29-1.26-.69-1.74-1.19-.48-.5-.85-1.08-1.09-1.74-.24-.66-.36-1.36-.36-2.11,0-1,.24-2,.73-3,.48-1,1.35-1.9,2.59-2.71,1.24-.81,2.91-1.46,5.01-1.96,2.1-.5,4.76-.75,7.99-.75,3.58,0,6.64,.36,9.18,1.09,2.53,.73,4.6,1.78,6.2,3.17,1.6,1.39,2.76,3.11,3.49,5.16,.73,2.05,1.09,4.38,1.09,7,0,3.13-.1,6.07-.29,8.81-.19,2.75-.33,5.17-.41,7.29-.08,2.12-.04,3.86,.12,5.23,.16,1.37,.61,2.22,1.36,2.54,.32,.16,.73,.23,1.21,.22,.48-.02,1-.07,1.55-.17Zm-16.8-21.65c0-.19-.08-.32-.24-.39-.16-.06-.31-.02-.44,.14-.26,.29-.49,.57-.7,.82-.21,.26-.49,.56-.85,.92-.61,.65-1.24,1.25-1.89,1.82-.65,.56-1.29,1.14-1.94,1.72-.65,.52-1.28,1.03-1.91,1.55-.63,.52-1.22,1.08-1.77,1.7-.84,.97-1.46,2.03-1.87,3.17-.4,1.15-.6,2.37-.6,3.66,0,.87,.13,1.75,.39,2.64,.26,.89,.65,1.68,1.19,2.37,.53,.69,1.21,1.26,2.04,1.7,.82,.44,1.82,.65,2.98,.65s2.11-.24,2.83-.73c.73-.48,1.29-1.07,1.7-1.74s.69-1.36,.85-2.06c.16-.69,.24-1.23,.24-1.62v-16.32Z"/><path class="cls-1" d="M98.88,120.32c-.53,2.42-1.23,4.47-2.11,6.15-.87,1.68-1.88,3.03-3.03,4.04-1.15,1.02-2.34,1.8-3.58,2.35-1.24,.55-2.48,.91-3.71,1.09-1.23,.18-2.37,.27-3.44,.27-1.81,0-3.42-.2-4.82-.61-1.4-.4-2.6-.94-3.58-1.62-.98-.68-1.73-1.48-2.25-2.4-.52-.92-.77-1.91-.77-2.98,0-1.71,.53-3,1.57-3.88,1.05-.87,2.4-1.31,4.04-1.31,1.16,0,2.14,.28,2.93,.85,.79,.56,1.43,1.23,1.91,1.99s.85,1.49,1.11,2.2c.26,.71,.44,1.21,.53,1.5,.1,.29,.24,.64,.44,1.04,.19,.4,.44,.77,.75,1.09s.67,.57,1.09,.75c.42,.18,.92,.19,1.5,.02,.68-.19,1.17-.57,1.48-1.11s.48-1.19,.53-1.91c.05-.73,0-1.49-.17-2.3-.16-.81-.36-1.57-.58-2.28-.19-.65-.42-1.25-.68-1.82-.26-.57-.49-1.33-.7-2.3-.21-.97-.39-2.24-.53-3.8-.15-1.57-.22-3.69-.22-6.37v-32.35c0-.42-.19-.68-.58-.77-.07,0-.3-.05-.7-.15s-.86-.21-1.38-.34-.99-.24-1.43-.34-.7-.16-.8-.19c-.42-.1-.64-.31-.65-.65s.22-.57,.7-.7c1.26-.29,2.62-.69,4.09-1.19,1.47-.5,2.95-1.07,4.43-1.7,1.48-.63,2.92-1.31,4.31-2.03,1.39-.73,2.63-1.46,3.73-2.2,.29-.19,.59-.27,.9-.24,.31,.03,.46,.27,.46,.73v44.75c0,3.39-.27,6.3-.8,8.72Zm1.19-71.29c-.39-.94-.93-1.75-1.62-2.45-.7-.69-1.52-1.24-2.47-1.65-.95-.4-2.01-.61-3.17-.61s-2.2,.21-3.2,.63c-1,.42-1.87,.99-2.59,1.7s-1.3,1.54-1.72,2.49c-.42,.95-.63,1.96-.63,3.03s.19,2.07,.58,3c.39,.94,.93,1.74,1.62,2.42,.69,.68,1.52,1.22,2.47,1.62,.95,.4,1.99,.61,3.12,.61s2.23-.21,3.22-.63c.99-.42,1.85-.98,2.59-1.67,.74-.69,1.32-1.52,1.74-2.47,.42-.95,.63-1.96,.63-3.03s-.19-2.07-.58-3Z"/><path class="cls-1" d="M151.45,106.71c.45-.1,.81,0,1.07,.27,.26,.27,.27,.64,.05,1.09-.19,.36-.51,.77-.94,1.26s-1.02,.94-1.74,1.36c-.73,.42-1.61,.77-2.66,1.07-1.05,.29-2.28,.44-3.71,.44-1.97,0-3.62-.4-4.96-1.19s-2.27-1.7-2.79-2.74c-.13-.26-.31-.37-.56-.34-.24,.03-.44,.13-.61,.29-.1,.1-.4,.36-.9,.8s-1.21,.9-2.13,1.4c-.92,.5-2.03,.95-3.32,1.36-1.29,.4-2.78,.61-4.46,.61-2.87,0-5.29-.4-7.24-1.21-1.95-.81-3.54-1.85-4.75-3.12-1.21-1.28-2.08-2.71-2.62-4.31-.53-1.6-.8-3.19-.8-4.77,0-2.55,.72-4.78,2.16-6.68,1.44-1.91,3.3-3.33,5.59-4.26,1.23-.48,2.51-.83,3.85-1.04,1.34-.21,2.67-.43,4-.65,1.32-.23,2.62-.51,3.9-.85,1.27-.34,2.48-.9,3.61-1.67,1.19-.81,2.03-1.84,2.49-3.1,.47-1.26,.7-2.6,.7-4.02,0-1.03-.14-2.03-.41-2.98-.28-.95-.66-1.78-1.16-2.49-.5-.71-1.08-1.28-1.74-1.7-.66-.42-1.38-.63-2.16-.63-1.39,0-2.41,.36-3.05,1.07-.65,.71-1.16,1.57-1.53,2.57-.37,1-.72,2.04-1.04,3.12s-.84,2.01-1.55,2.78c-.58,.61-1.33,1.07-2.25,1.38-.92,.31-1.8,.46-2.64,.46s-1.65-.15-2.32-.44c-.68-.29-1.26-.69-1.74-1.19-.48-.5-.85-1.08-1.09-1.74-.24-.66-.36-1.36-.36-2.11,0-1,.24-2,.73-3,.48-1,1.35-1.9,2.59-2.71,1.24-.81,2.91-1.46,5.01-1.96,2.1-.5,4.76-.75,7.99-.75,3.58,0,6.64,.36,9.18,1.09,2.53,.73,4.6,1.78,6.2,3.17,1.6,1.39,2.76,3.11,3.49,5.16,.73,2.05,1.09,4.38,1.09,7,0,3.13-.1,6.07-.29,8.81-.19,2.75-.33,5.17-.41,7.29-.08,2.12-.04,3.86,.12,5.23,.16,1.37,.61,2.22,1.36,2.54,.32,.16,.73,.23,1.21,.22,.48-.02,1-.07,1.55-.17Zm-16.8-21.65c0-.19-.08-.32-.24-.39-.16-.06-.31-.02-.44,.14-.26,.29-.49,.57-.7,.82s-.49,.56-.85,.92c-.61,.65-1.24,1.25-1.89,1.82-.65,.56-1.29,1.14-1.94,1.72-.65,.52-1.28,1.03-1.91,1.55-.63,.52-1.22,1.08-1.77,1.7-.84,.97-1.46,2.03-1.87,3.17-.4,1.15-.61,2.37-.61,3.66,0,.87,.13,1.75,.39,2.64,.26,.89,.65,1.68,1.19,2.37,.53,.69,1.21,1.26,2.03,1.7,.82,.44,1.82,.65,2.98,.65s2.11-.24,2.83-.73c.73-.48,1.29-1.07,1.7-1.74,.4-.68,.69-1.36,.85-2.06,.16-.69,.24-1.23,.24-1.62v-16.32Z"/><path class="cls-1" d="M157.84,107.83c0-.06-.07-.52-.22-1.38-.14-.85-.3-1.8-.46-2.83-.16-1.03-.32-2.01-.46-2.93-.14-.92-.23-1.49-.27-1.72-.07-.45,.06-.72,.39-.8,.32-.08,.56,0,.73,.27,.03,.1,.24,.44,.63,1.02s.92,1.29,1.6,2.13c.68,.84,1.49,1.74,2.45,2.71,.95,.97,2.02,1.86,3.2,2.69s2.46,1.5,3.85,2.03c1.39,.53,2.87,.8,4.46,.8,1.84,0,3.29-.5,4.33-1.5s1.57-2.33,1.57-3.97c0-.87-.11-1.73-.34-2.57s-.71-1.68-1.45-2.52c-.74-.84-1.81-1.67-3.2-2.49s-3.24-1.65-5.57-2.49c-2.13-.74-3.92-1.63-5.38-2.66-1.45-1.03-2.63-2.19-3.54-3.46s-1.56-2.65-1.96-4.12c-.4-1.47-.61-3.03-.61-4.67,0-1.26,.23-2.64,.68-4.14,.45-1.5,1.27-2.91,2.45-4.21,1.18-1.31,2.79-2.41,4.82-3.29s4.63-1.33,7.8-1.33c2,0,3.86,.16,5.57,.48,1.71,.32,3.21,.69,4.48,1.09s2.29,.78,3.05,1.14c.76,.36,1.19,.55,1.28,.58,.19,.1,.31,.18,.34,.24,.03,.07,.06,.18,.1,.34,0,.07,.08,.51,.24,1.33,.16,.82,.32,1.72,.48,2.69s.32,1.86,.48,2.66c.16,.81,.24,1.26,.24,1.36,.06,.32-.05,.56-.34,.7-.29,.14-.55,.06-.78-.27-.45-.65-1.16-1.52-2.13-2.62s-2.15-2.18-3.54-3.25c-1.39-1.07-2.93-1.99-4.62-2.78-1.7-.79-3.5-1.19-5.4-1.19-2,0-3.47,.53-4.41,1.6s-1.4,2.36-1.4,3.88c0,.77,.11,1.53,.34,2.25,.23,.73,.71,1.43,1.45,2.11,.74,.68,1.82,1.36,3.22,2.06s3.29,1.4,5.64,2.11c4.71,1.45,8.28,3.42,10.7,5.91,2.42,2.49,3.63,5.7,3.63,9.64,0,2-.34,3.85-1.02,5.54-.68,1.7-1.73,3.17-3.15,4.41-1.42,1.24-3.23,2.22-5.42,2.93-2.2,.71-4.81,1.07-7.85,1.07-2.55,0-4.82-.19-6.8-.56-1.99-.37-3.67-.78-5.04-1.23-1.37-.45-2.45-.88-3.22-1.28-.78-.4-1.23-.65-1.36-.75-.07-.06-.12-.16-.17-.29-.05-.13-.09-.27-.12-.44Z"/></g><g><path class="cls-1" d="M330.6,38.76c1.87,0,3.6,.22,5.18,.65,1.58,.44,2.95,1.03,4.09,1.77,1.15,.74,2.04,1.61,2.69,2.62,.64,1,.97,2.07,.97,3.2,0,1.68-.5,3.07-1.5,4.17-1,1.1-2.37,1.65-4.12,1.65s-3.15-.5-4.21-1.5c-1.07-1-1.6-2.39-1.6-4.17,0-.45,.02-1.03,.05-1.72,.03-.69,0-1.36-.1-2.01-.1-.65-.31-1.2-.63-1.67-.32-.47-.84-.7-1.55-.7-1.13,0-2.05,.42-2.76,1.26-.71,.84-1.26,2.01-1.65,3.51-.39,1.5-.65,3.29-.8,5.38-.14,2.08-.22,4.35-.22,6.8v9.2c0,.26,.13,.39,.39,.39h8.96c.77,0,1.25,.05,1.43,.14,.18,.1,.27,.31,.27,.63,0,.42-.22,.86-.65,1.33-.44,.47-.93,.7-1.48,.7h-8.57c-.22,0-.34,.11-.34,.34v32.59c0,1.32,.28,2.39,.85,3.2,.56,.81,1.21,1.45,1.94,1.91s1.44,.8,2.13,.99c.69,.19,1.17,.31,1.43,.34,.26,.06,.44,.17,.56,.31s.15,.3,.12,.46c-.03,.16-.12,.31-.27,.44-.14,.13-.35,.19-.61,.19h-25.38c-.26,0-.46-.06-.61-.19-.15-.13-.23-.27-.27-.44-.03-.16,0-.31,.12-.46s.3-.25,.56-.31c.26-.03,.73-.15,1.43-.34,.69-.19,1.4-.52,2.13-.99s1.37-1.11,1.94-1.91c.56-.81,.85-1.87,.85-3.2v-32.54c0-.26-.11-.39-.34-.39h-1.45c-.77,0-1.25-.05-1.43-.15s-.27-.31-.27-.63c0-.42,.19-.86,.56-1.33s.83-.7,1.38-.7h1.21c.23,0,.34-.13,.34-.39,0-3.33,.06-6.15,.17-8.48,.11-2.32,.31-4.33,.61-6,.29-1.68,.68-3.12,1.16-4.31,.48-1.19,1.1-2.32,1.84-3.39,.87-1.19,1.9-2.2,3.08-3,1.18-.81,2.45-1.45,3.8-1.94s2.76-.82,4.21-1.02c1.45-.19,2.91-.29,4.36-.29Z"/><path class="cls-1" d="M380.97,106.71c.45-.1,.81,0,1.06,.27,.26,.27,.27,.64,.05,1.09-.19,.36-.51,.77-.95,1.26-.44,.48-1.02,.94-1.74,1.36-.73,.42-1.62,.77-2.66,1.07-1.05,.29-2.29,.44-3.71,.44-1.97,0-3.62-.4-4.96-1.19s-2.27-1.7-2.78-2.74c-.13-.26-.32-.37-.56-.34-.24,.03-.44,.13-.61,.29-.1,.1-.39,.36-.89,.8-.5,.44-1.21,.9-2.13,1.4-.92,.5-2.03,.95-3.32,1.36-1.29,.4-2.78,.61-4.46,.61-2.88,0-5.29-.4-7.24-1.21s-3.54-1.85-4.75-3.12-2.08-2.71-2.62-4.31c-.53-1.6-.8-3.19-.8-4.77,0-2.55,.72-4.78,2.15-6.68s3.3-3.33,5.59-4.26c1.23-.48,2.51-.83,3.85-1.04,1.34-.21,2.67-.43,4-.65,1.32-.23,2.62-.51,3.9-.85s2.48-.9,3.61-1.67c1.19-.81,2.03-1.84,2.49-3.1,.47-1.26,.7-2.6,.7-4.02,0-1.03-.14-2.03-.41-2.98-.27-.95-.66-1.78-1.16-2.49-.5-.71-1.08-1.28-1.74-1.7-.66-.42-1.38-.63-2.16-.63-1.39,0-2.41,.36-3.05,1.07-.65,.71-1.15,1.57-1.53,2.57-.37,1-.72,2.04-1.04,3.12-.32,1.08-.84,2.01-1.55,2.78-.58,.61-1.33,1.07-2.25,1.38s-1.8,.46-2.64,.46-1.65-.15-2.32-.44c-.68-.29-1.26-.69-1.74-1.19-.48-.5-.85-1.08-1.09-1.74-.24-.66-.36-1.36-.36-2.11,0-1,.24-2,.73-3,.48-1,1.35-1.9,2.59-2.71,1.24-.81,2.91-1.46,5.01-1.96,2.1-.5,4.76-.75,7.99-.75,3.58,0,6.64,.36,9.18,1.09,2.54,.73,4.6,1.78,6.2,3.17,1.6,1.39,2.76,3.11,3.49,5.16,.72,2.05,1.09,4.38,1.09,7,0,3.13-.1,6.07-.29,8.81-.2,2.75-.33,5.17-.41,7.29-.08,2.12-.04,3.86,.12,5.23,.16,1.37,.61,2.22,1.36,2.54,.32,.16,.73,.23,1.21,.22,.48-.02,1-.07,1.55-.17Zm-16.81-21.65c0-.19-.08-.32-.24-.39s-.31-.02-.44,.14c-.26,.29-.49,.57-.7,.82-.21,.26-.49,.56-.85,.92-.62,.65-1.24,1.25-1.89,1.82-.65,.56-1.29,1.14-1.94,1.72-.65,.52-1.28,1.03-1.91,1.55-.63,.52-1.22,1.08-1.77,1.7-.84,.97-1.46,2.03-1.86,3.17-.4,1.15-.61,2.37-.61,3.66,0,.87,.13,1.75,.39,2.64,.26,.89,.65,1.68,1.19,2.37,.53,.69,1.21,1.26,2.03,1.7,.82,.44,1.82,.65,2.98,.65s2.11-.24,2.83-.73c.72-.48,1.29-1.07,1.69-1.74s.69-1.36,.85-2.06c.16-.69,.24-1.23,.24-1.62v-16.32Z"/><path class="cls-1" d="M403.22,120.32c-.53,2.42-1.23,4.47-2.11,6.15-.87,1.68-1.88,3.03-3.03,4.04-1.15,1.02-2.34,1.8-3.58,2.35s-2.48,.91-3.71,1.09c-1.23,.18-2.37,.27-3.44,.27-1.81,0-3.41-.2-4.82-.61-1.4-.4-2.6-.94-3.58-1.62-.99-.68-1.74-1.48-2.25-2.4-.52-.92-.77-1.91-.77-2.98,0-1.71,.53-3,1.57-3.88,1.05-.87,2.4-1.31,4.04-1.31,1.16,0,2.14,.28,2.93,.85,.79,.56,1.43,1.23,1.91,1.99s.86,1.49,1.11,2.2c.26,.71,.44,1.21,.53,1.5,.1,.29,.24,.64,.44,1.04,.19,.4,.44,.77,.75,1.09s.67,.57,1.09,.75c.42,.18,.92,.19,1.5,.02,.68-.19,1.17-.57,1.48-1.11s.48-1.19,.53-1.91,0-1.49-.17-2.3c-.16-.81-.36-1.57-.58-2.28-.2-.65-.42-1.25-.68-1.82-.26-.57-.49-1.33-.7-2.3-.21-.97-.39-2.24-.53-3.8-.14-1.57-.22-3.69-.22-6.37v-32.35c0-.42-.2-.68-.58-.77-.06,0-.3-.05-.7-.15-.4-.1-.86-.21-1.38-.34-.52-.13-.99-.24-1.43-.34s-.7-.16-.8-.19c-.42-.1-.64-.31-.65-.65-.02-.34,.22-.57,.7-.7,1.26-.29,2.62-.69,4.09-1.19,1.47-.5,2.95-1.07,4.43-1.7s2.92-1.31,4.31-2.03,2.63-1.46,3.73-2.2c.29-.19,.59-.27,.9-.24s.46,.27,.46,.73v44.75c0,3.39-.27,6.3-.8,8.72Zm1.19-71.29c-.39-.94-.93-1.75-1.62-2.45s-1.52-1.24-2.47-1.65c-.95-.4-2.01-.61-3.17-.61s-2.2,.21-3.2,.63c-1,.42-1.87,.99-2.59,1.7s-1.3,1.54-1.72,2.49-.63,1.96-.63,3.03,.19,2.07,.58,3c.39,.94,.93,1.74,1.62,2.42,.69,.68,1.52,1.22,2.47,1.62,.95,.4,1.99,.61,3.12,.61s2.23-.21,3.22-.63c.98-.42,1.85-.98,2.59-1.67,.74-.69,1.32-1.52,1.74-2.47,.42-.95,.63-1.96,.63-3.03s-.19-2.07-.58-3Z"/><path class="cls-1" d="M455.79,106.71c.45-.1,.81,0,1.07,.27,.26,.27,.27,.64,.05,1.09-.19,.36-.51,.77-.94,1.26s-1.02,.94-1.74,1.36c-.73,.42-1.62,.77-2.66,1.07-1.05,.29-2.28,.44-3.71,.44-1.97,0-3.62-.4-4.96-1.19s-2.27-1.7-2.79-2.74c-.13-.26-.31-.37-.56-.34-.24,.03-.44,.13-.61,.29-.1,.1-.4,.36-.9,.8s-1.21,.9-2.13,1.4c-.92,.5-2.03,.95-3.32,1.36-1.29,.4-2.78,.61-4.46,.61-2.87,0-5.29-.4-7.24-1.21s-3.54-1.85-4.75-3.12-2.08-2.71-2.62-4.31c-.53-1.6-.8-3.19-.8-4.77,0-2.55,.72-4.78,2.16-6.68,1.44-1.91,3.3-3.33,5.59-4.26,1.23-.48,2.51-.83,3.85-1.04,1.34-.21,2.67-.43,4-.65,1.32-.23,2.62-.51,3.9-.85,1.28-.34,2.48-.9,3.61-1.67,1.19-.81,2.03-1.84,2.49-3.1,.47-1.26,.7-2.6,.7-4.02,0-1.03-.14-2.03-.41-2.98-.28-.95-.66-1.78-1.16-2.49-.5-.71-1.08-1.28-1.74-1.7-.66-.42-1.38-.63-2.15-.63-1.39,0-2.41,.36-3.05,1.07-.64,.71-1.15,1.57-1.53,2.57-.37,1-.72,2.04-1.04,3.12s-.84,2.01-1.55,2.78c-.58,.61-1.33,1.07-2.25,1.38s-1.8,.46-2.64,.46-1.65-.15-2.32-.44c-.68-.29-1.26-.69-1.74-1.19-.48-.5-.85-1.08-1.09-1.74-.24-.66-.36-1.36-.36-2.11,0-1,.24-2,.73-3,.48-1,1.35-1.9,2.59-2.71,1.24-.81,2.91-1.46,5.01-1.96,2.1-.5,4.76-.75,7.99-.75,3.58,0,6.64,.36,9.18,1.09,2.53,.73,4.6,1.78,6.2,3.17,1.6,1.39,2.76,3.11,3.49,5.16,.73,2.05,1.09,4.38,1.09,7,0,3.13-.1,6.07-.29,8.81-.19,2.75-.33,5.17-.41,7.29-.08,2.12-.04,3.86,.12,5.23,.16,1.37,.61,2.22,1.36,2.54,.32,.16,.73,.23,1.21,.22,.48-.02,1-.07,1.55-.17Zm-16.8-21.65c0-.19-.08-.32-.24-.39-.16-.06-.31-.02-.44,.14-.26,.29-.49,.57-.7,.82-.21,.26-.49,.56-.85,.92-.61,.65-1.24,1.25-1.89,1.82-.65,.56-1.29,1.14-1.94,1.72-.65,.52-1.28,1.03-1.91,1.55-.63,.52-1.22,1.08-1.77,1.7-.84,.97-1.46,2.03-1.87,3.17-.4,1.15-.61,2.37-.61,3.66,0,.87,.13,1.75,.39,2.64,.26,.89,.65,1.68,1.19,2.37,.53,.69,1.21,1.26,2.03,1.7,.82,.44,1.82,.65,2.98,.65s2.11-.24,2.83-.73c.73-.48,1.29-1.07,1.7-1.74,.4-.68,.69-1.36,.85-2.06,.16-.69,.24-1.23,.24-1.62v-16.32Z"/><path class="cls-1" d="M462.18,107.83c0-.06-.07-.52-.22-1.38-.15-.85-.3-1.8-.46-2.83-.16-1.03-.31-2.01-.46-2.93-.14-.92-.23-1.49-.27-1.72-.06-.45,.06-.72,.39-.8,.32-.08,.56,0,.73,.27,.03,.1,.24,.44,.63,1.02,.39,.58,.92,1.29,1.6,2.13,.68,.84,1.49,1.74,2.45,2.71,.95,.97,2.02,1.86,3.2,2.69,1.18,.82,2.46,1.5,3.85,2.03,1.39,.53,2.87,.8,4.46,.8,1.84,0,3.29-.5,4.34-1.5,1.05-1,1.57-2.33,1.57-3.97,0-.87-.11-1.73-.34-2.57-.23-.84-.71-1.68-1.45-2.52-.74-.84-1.81-1.67-3.2-2.49s-3.24-1.65-5.57-2.49c-2.13-.74-3.92-1.63-5.38-2.66-1.45-1.03-2.63-2.19-3.54-3.46s-1.56-2.65-1.96-4.12c-.4-1.47-.61-3.03-.61-4.67,0-1.26,.23-2.64,.68-4.14,.45-1.5,1.27-2.91,2.45-4.21,1.18-1.31,2.78-2.41,4.82-3.29,2.03-.89,4.63-1.33,7.8-1.33,2,0,3.86,.16,5.57,.48,1.71,.32,3.21,.69,4.48,1.09s2.29,.78,3.05,1.14c.76,.36,1.19,.55,1.28,.58,.2,.1,.31,.18,.34,.24,.03,.07,.06,.18,.1,.34,0,.07,.08,.51,.24,1.33,.16,.82,.32,1.72,.48,2.69,.16,.97,.32,1.86,.48,2.66,.16,.81,.24,1.26,.24,1.36,.06,.32-.05,.56-.34,.7-.29,.14-.55,.06-.78-.27-.45-.65-1.16-1.52-2.13-2.62s-2.15-2.18-3.54-3.25-2.93-1.99-4.62-2.78-3.5-1.19-5.4-1.19c-2,0-3.47,.53-4.41,1.6-.94,1.07-1.4,2.36-1.4,3.88,0,.77,.11,1.53,.34,2.25,.23,.73,.71,1.43,1.45,2.11s1.82,1.36,3.22,2.06,3.29,1.4,5.64,2.11c4.71,1.45,8.28,3.42,10.7,5.91,2.42,2.49,3.63,5.7,3.63,9.64,0,2-.34,3.85-1.02,5.54-.68,1.7-1.73,3.17-3.15,4.41-1.42,1.24-3.23,2.22-5.42,2.93-2.2,.71-4.81,1.07-7.85,1.07-2.55,0-4.82-.19-6.8-.56s-3.66-.78-5.04-1.23-2.45-.88-3.22-1.28c-.78-.4-1.23-.65-1.36-.75-.06-.06-.12-.16-.17-.29-.05-.13-.09-.27-.12-.44Z"/></g><g><path class="cls-1" d="M134.97,166.46l5.6-12.6h2.88l5.65,12.6h-3.06l-4.62-11.12h1.17l-4.63,11.12h-2.99Zm2.83-2.7l.74-2.21h6.52l.76,2.21h-8.01Z"/><path class="cls-1" d="M172.02,166.46v-12.6h5.45c1.13,0,2.1,.18,2.92,.55s1.45,.89,1.89,1.58c.44,.68,.67,1.49,.67,2.43s-.22,1.76-.67,2.44c-.45,.68-1.07,1.19-1.89,1.55s-1.79,.53-2.92,.53h-3.85l1.33-1.26v4.79h-2.93Zm2.93-4.46l-1.33-1.39h3.69c.89,0,1.56-.19,2.02-.58,.46-.38,.69-.92,.69-1.62s-.23-1.23-.69-1.61c-.46-.38-1.13-.57-2.02-.57h-3.69l1.33-1.39v7.15Zm5.09,4.46l-3.17-4.57h3.13l3.17,4.57h-3.13Z"/><path class="cls-1" d="M206.85,166.46v-12.6h2.93v12.6h-2.93Z"/><path class="cls-1" d="M233.54,166.46v-1.89l7.79-9.4,.36,1.06h-8.01v-2.38h10.6v1.89l-7.78,9.4-.36-1.06h8.41v2.38h-11.02Z"/><path class="cls-1" d="M274.02,166.67c-1,0-1.91-.16-2.75-.49-.84-.32-1.57-.78-2.2-1.37-.62-.59-1.11-1.28-1.45-2.07s-.51-1.66-.51-2.59,.17-1.81,.51-2.6,.83-1.47,1.45-2.06c.62-.59,1.35-1.04,2.19-1.37,.83-.32,1.75-.49,2.74-.49s1.91,.16,2.75,.48c.83,.32,1.56,.77,2.19,1.36,.62,.59,1.11,1.28,1.45,2.07,.34,.79,.51,1.66,.51,2.61s-.17,1.8-.51,2.6c-.34,.8-.82,1.49-1.45,2.08-.62,.59-1.35,1.04-2.19,1.36s-1.74,.48-2.73,.48Zm-.02-2.47c.56,0,1.08-.1,1.56-.3,.47-.2,.89-.48,1.25-.85s.64-.79,.84-1.28c.2-.49,.3-1.03,.3-1.63s-.1-1.14-.3-1.63c-.2-.49-.48-.91-.84-1.28-.36-.37-.78-.65-1.25-.85-.47-.2-.99-.3-1.56-.3s-1.09,.1-1.56,.3c-.48,.2-.9,.48-1.25,.85-.35,.37-.63,.79-.83,1.28-.2,.49-.3,1.03-.3,1.63s.1,1.14,.3,1.63c.2,.49,.47,.91,.83,1.28s.77,.65,1.25,.85c.48,.2,1,.3,1.56,.3Z"/><path class="cls-1" d="M304.7,166.46v-12.6h2.41l7.43,9.07h-1.17v-9.07h2.88v12.6h-2.41l-7.43-9.07h1.17v9.07h-2.88Z"/><path class="cls-1" d="M339.18,166.46l5.6-12.6h2.88l5.65,12.6h-3.06l-4.62-11.12h1.17l-4.63,11.12h-2.99Zm2.83-2.7l.74-2.21h6.52l.76,2.21h-8.01Z"/></g><path class="cls-1" d="M290.24,85.92c-16.51-5.57-23.35-10.36-26.29-28.19-.25-1.22-.8-3.69-1.09-4.91-.68-2.7-.8-11.05-4.71-9.85-5.69,3.04-8.49,14.42-9.97,20.5-2.09,8.8,6.58,10.46,11.25,15.93,7.84,8.67,9.23,21.6,6.79,32.5-1.41,6.75-3.85,13.09-6.48,19.28-.15,.35-.55,.51-.89,.36-.31-.13-.48-.48-.39-.8,1.7-6.51,3.59-12.93,4.52-19.41,1.55-10.1,.42-21.35-6.48-29.3-2.77-3.21-6.62-4.9-9.54-8.2-4.27-4.44-2.73-11.3-1.14-16.1,1.52-4.94,3.21-10.09,6.47-14.31,2.66-3.54,7.76-6.14,10.99-1.54,2.51,4.06,1.95,8.53,3.09,12.78,1.4,7.08,2.07,14.94,7.36,20.25,2.23,2.29,4.97,4.12,7.88,5.64,2.92,1.52,6,2.82,9.11,4.08,.78,.31,.35,1.56-.48,1.27h0Z"/><path class="cls-1" d="M233.25,3.92c-6.58,.45-13.09,1.59-19.34,3.57-5.73,1.61-12.32,4.57-7.62,11.27,1.65,2.32,4.49,3.89,7.31,5.85,6.16,3.99,9.78,11.6,8.9,18.94-.19,1.83-.7,3.69-1.38,5.35-1.26,2.92-2.41,5.16-1.01,8.02,.57,1.33,1.44,2.75,2.22,4.39,3.05,6.52,2.55,13.77,2.24,20.59-.79,16.5,1.13,33.04,5.41,49,.12,.46-.15,.93-.61,1.05-.43,.11-.88-.13-1.03-.55-2.22-6.33-3.93-12.85-5.19-19.46-1.82-9.93-2.67-20.08-2.36-30.18,.14-6.34,.66-13.01-2.05-18.75-1.54-2.98-3.99-6.82-3.09-10.54,.4-2.02,1.24-3.62,1.83-5.07,1.77-4.15,1.6-8.91-.24-13.02-2.48-6.4-9.94-8.25-13.71-13.68-2.32-3.11-2.96-8.19-.01-11.2,2.63-2.82,6.2-3.71,9.63-4.66,6.56-1.71,13.31-2.66,20.05-2.64,1.08,.03,1.14,1.62,.05,1.71h0Z"/><path class="cls-1" d="M227.71,30.7c2.45,.08,5.2,.18,6.04-2.06,.25-1.46-.72-1.49-2.2-2.21-3.42-1.23-4.46-5.85-4.65-8.7-.48-4.09-.09-8.56,2.17-12.2,2.16-3.72,6.75-6.19,10.99-5.39,.46,.08,.77,.51,.7,.97-.06,.38-.38,.66-.74,.7-3.5,.37-6.39,2.37-7.91,5.45-2.07,4.02-2.12,10.66-.42,14.84,1,1.66,2.72,1.42,4.26,3.27,1.45,1.73,1.01,4.45-.56,5.91-1.29,1.26-3.27,1.7-4.92,1.58-1.07-.06-2.05-.29-2.99-.52-.45-.11-.73-.56-.62-1.01,.1-.4,.46-.66,.86-.64h0Z"/><path class="cls-1" d="M240,.33c8.76-1.98,15.73,5.91,12.8,14.38-1.16,3.6-3.65,6.5-6.11,9.15-1.21,1.31-2.34,2.39-2.46,3.49-.19,1.59,.68,1.7,2.22,1.46,.77-.14,1.07,.99,.36,1.27-4.32,2.2-6.31-2.66-4.09-5.96,2.36-3.51,5.57-6.75,6.78-10.5,2.33-6.71-2.67-11.94-9.41-11.97-.77-.03-.84-1.19-.09-1.32h0Z"/></svg>